HIERARCHY
ROOT Hips
{
	OFFSET 0.00000 0.00000 0.00000
	CHANNELS 6 Xposition Yposition Zposition Zrotation Yrotation Xrotation 
	JOINT LHipJoint
	{
		OFFSET 0 0 0
		CHANNELS 3 Zrotation Yrotation Xrotation
		JOINT LeftHip
		{
			OFFSET 1.62067 -1.77917 0.70989
			CHANNELS 3 Zrotation Yrotation Xrotation
			JOINT LeftKnee
			{
				OFFSET 2.34532 -6.44371 0.00000
				CHANNELS 3 Zrotation Yrotation Xrotation
				JOINT LeftAnkle
				{
					OFFSET 2.74224 -7.53425 0.00000
					CHANNELS 3 Zrotation Yrotation Xrotation
					JOINT LeftToe
					{
						OFFSET 0.17032 -0.46794 2.08086
						CHANNELS 3 Zrotation Yrotation Xrotation
						End Site
						{
							OFFSET 0.00000 -0.00000 1.07476
						}
					}
				}
			}
		}
	}
	JOINT RHipJoint
	{
		OFFSET 0 0 0
		CHANNELS 3 Zrotation Yrotation Xrotation
		JOINT RightHip
		{
			OFFSET -1.55811 -1.77917 0.70989
			CHANNELS 3 Zrotation Yrotation Xrotation
			JOINT RightKnee
			{
				OFFSET -2.33243 -6.40830 0.00000
				CHANNELS 3 Zrotation Yrotation Xrotation
				JOINT RightAnkle
				{
					OFFSET -2.78798 -7.65993 0.00000
					CHANNELS 3 Zrotation Yrotation Xrotation
					JOINT RightToe
					{
						OFFSET -0.22707 -0.62388 2.04059
						CHANNELS 3 Zrotation Yrotation Xrotation
						End Site
						{
							OFFSET -0.00000 -0.00000 1.07030
						}
					}
				}
			}
		}
	}
	JOINT lowerback
	{
		OFFSET 0 0 0
		CHANNELS 3 Zrotation Yrotation Xrotation
		JOINT Chest
		{
			OFFSET 0.02203 1.91565 0.07161
			CHANNELS 3 Zrotation Yrotation Xrotation
			JOINT Chest2
			{
				OFFSET 0.01740 1.90525 0.11636
				CHANNELS 3 Zrotation Yrotation Xrotation
				JOINT lowerneck
				{
					OFFSET 0 0 0
					CHANNELS 3 Zrotation Yrotation Xrotation
					JOINT Neck
					{
						OFFSET -0.10841 1.83566 0.05067
						CHANNELS 3 Zrotation Yrotation Xrotation
						JOINT Head
						{
							OFFSET 0.06601 1.74760 -0.50505
							CHANNELS 3 Zrotation Yrotation Xrotation
							End Site
							{
								OFFSET 0.03102 1.85215 -0.17697
							}
						}
					}
				}
				JOINT LeftCollar
				{
					OFFSET 0 0 0
					CHANNELS 3 Zrotation Yrotation Xrotation
					JOINT LeftShoulder
					{
						OFFSET 2.87059 1.35470 0.16111
CHANNELS 3 Zrotation Xrotation Yrotation
						JOINT LeftElbow
						{
OFFSET 0 -5.435920 0.000000
CHANNELS 3 Zrotation Xrotation Yrotation
							JOINT LeftWrist
							{
OFFSET 0 -3.254600 0.000000
CHANNELS 3 Zrotation Xrotation Yrotation
								JOINT lhand
								{
									OFFSET 0 0 0
CHANNELS 3 Zrotation Xrotation Yrotation
									JOINT LFingers
									{
OFFSET 0 -0.498240 0.000000
CHANNELS 3 Zrotation Xrotation Yrotation
										End Site
										{
OFFSET 0 -0.401700 0.000000
										}
									}
								}
								JOINT LThumb
								{
OFFSET 0 0.000000 0.000000
CHANNELS 3 Zrotation Xrotation Yrotation
									End Site
									{
OFFSET 0 -0.407830 0.407830
									}
								}
							}
						}
					}
				}
				JOINT RightCollar
				{
					OFFSET 0 0 0
					CHANNELS 3 Zrotation Yrotation Xrotation
					JOINT RightShoulder
					{
						OFFSET -2.86643 1.23488 0.45957
CHANNELS 3 Zrotation Xrotation Yrotation
						JOINT RightElbow
						{
OFFSET 0 -5.338300 0.000000
CHANNELS 3 Zrotation Xrotation Yrotation
							JOINT RightWrist
							{
OFFSET 0 -3.231480 0.000000
CHANNELS 3 Zrotation Xrotation Yrotation
								JOINT rhand
								{
									OFFSET 0 0 0
CHANNELS 3 Zrotation Xrotation Yrotation
									JOINT RFingers
									{
OFFSET 0 -0.463640 0.000000
CHANNELS 3 Zrotation Xrotation Yrotation
										End Site
										{
OFFSET 0 -0.373800 0.000000
										}
									}
								}
								JOINT RThumb
								{
OFFSET 0 0.000000 0.000000
CHANNELS 3 Zrotation Xrotation Yrotation
									End Site
									{
OFFSET 0 -0.379510 0.379510
									}
								}
							}
						}
					}
				}
			}
		}
	}
}
MOTION
Frames: 16
Frame Time: .0083333
4.2450 17.6675 1.7889 -1.6220 2.3807 18.2111 0.0000 0.0000 0.0000 -26.3749 -5.8061 -15.0961 0.4486 4.2971 11.9141 0.4905 3.5644 -15.0160 0.3809 3.9635 10.9741 0.0000 0.0000 0.0000 -2.3919 10.3853 -0.7879 -0.6450 -5.1377 14.3018 0.0193 -21.0771 14.6914 -0.8619 5.9201 -16.5528 12.2208 1.3474 -8.7974 1.5140 1.5356 -12.6595 -5.1420 -0.2312 -8.5576 11.3068 18.3805 -2.1151 4.0568 23.7178 7.2676 0.6442 12.1738 3.6062 -0.0000 0.0000 0.0000 129.4254 -12.7756 34.838 14.9474 -24.0727 3.2044 22.274 -35.883 16.0882 0.0 0.0 0.0 -7.1250 0.0 0.0 -3.6428 12.6954 -2.7589 -0.0000 0.0000 0.0000 -119.6146 9.7655 -18.1963 -136.0568 -50.2401 -98.5768 -2.8473 -70.591 42.7076 0.0 0.0 0.0 7.1250 0.0 -0.0 46.6164 67.0898 -27.1073
4.2466 17.6677 1.7921 -1.6370 2.4485 18.2660 0.0000 0.0000 0.0000 -26.3633 -5.7448 -15.2017 0.4558 4.3309 12.0095 0.4977 3.3981 -15.0033 0.3715 3.9148 10.8370 0.0000 0.0000 0.0000 -2.3422 10.2542 -0.7775 -0.6352 -5.0992 14.1917 0.0401 -21.0699 14.5212 -0.8548 5.8963 -16.4838 12.3155 1.3375 -8.8671 1.5081 1.5070 -12.6424 -5.2002 -0.2505 -8.5062 11.0835 18.4813 -2.1802 4.3595 23.8338 7.2679 0.7651 12.2357 3.5469 0.0000 -0.0000 0.0000 129.4329 -12.5531 34.857 14.9266 -24.0438 3.196 21.1271 -35.7207 16.5184 0.0 0.0 0.0 -7.1250 0.0 0.0 -4.4346 12.3824 -3.391 0.0000 -0.0000 0.0000 -119.6108 9.9771 -18.1985 -136.0752 -50.2308 -98.5909 -2.5752 -70.8212 42.5981 0.0 0.0 0.0 7.1250 0.0 -0.0 46.6797 66.9329 -26.9925
4.2452 17.6692 1.7936 -1.6361 2.5081 18.3198 0.0000 0.0000 0.0000 -26.3370 -5.7748 -15.3073 0.4612 4.3563 12.0812 0.5039 3.3160 -15.0316 0.3717 3.9158 10.8398 0.0000 0.0000 0.0000 -2.3108 10.2526 -0.7365 -0.6281 -5.0713 14.1120 0.0631 -21.1400 14.3890 -0.9020 6.0526 -16.9371 12.3124 1.3033 -8.9231 1.5316 1.4547 -12.6486 -5.1732 -0.2743 -8.4916 11.0057 18.5440 -2.2368 4.4697 23.9042 7.3231 0.8187 12.2744 3.5524 -0.0000 0.0000 0.0000 129.3687 -12.38 34.7565 14.9563 -24.0851 3.2081 21.8796 -36.2819 16.5143 0.0 0.0 0.0 -7.1250 0.0 0.0 -3.9331 12.2927 -3.0128 -0.0000 0.0000 0.0000 -119.6198 10.0371 -18.2391 -136.0018 -50.2682 -98.5345 -2.0066 -71.1933 42.5346 0.0 0.0 0.0 7.1250 0.0 -0.0 47.1023 66.7174 -27.0617
4.2461 17.6691 1.7989 -1.6605 2.5610 18.3628 0.0000 0.0000 0.0000 -26.2962 -5.8387 -15.3301 0.4620 4.3601 12.0922 0.5085 3.3197 -15.0930 0.3794 3.9557 10.9521 0.0000 0.0000 0.0000 -2.2596 10.1829 -0.7160 -0.6245 -5.0571 14.0715 0.0634 -21.1871 14.4217 -0.9598 6.2383 -17.4775 12.3499 1.2871 -9.0074 1.5578 1.4212 -12.6596 -5.1648 -0.2917 -8.4645 11.0083 18.5703 -2.1663 4.4602 23.9503 7.3038 0.8097 12.2961 3.5356 -0.0000 -0.0000 0.0000 129.2764 -12.1897 34.6051 15.0067 -24.1555 3.2287 23.9184 -37.3468 16.2114 0.0 0.0 0.0 -7.1250 0.0 0.0 -2.5532 12.3494 -1.95 -0.0000 -0.0000 0.0000 -119.6225 10.1084 -18.2252 -135.9957 -50.2713 -98.5298 -2.0455 -71.2876 42.566 0.0 0.0 0.0 7.1250 0.0 -0.0 47.1204 66.7502 -27.1076
4.2461 17.6665 1.8041 -1.6233 2.5992 18.3602 0.0000 0.0000 0.0000 -26.3356 -5.8313 -15.3335 0.4636 4.3674 12.1128 0.5100 3.2931 -15.0961 0.3723 3.9193 10.8498 0.0000 0.0000 0.0000 -2.2630 10.0609 -0.6766 -0.6211 -5.0436 14.0329 0.0597 -21.2468 14.4947 -0.9499 6.2070 -17.3862 12.3265 1.2583 -8.9962 1.5618 1.3869 -12.6728 -5.1484 -0.3086 -8.4921 11.0079 18.5953 -2.1933 4.4899 23.9759 7.3580 0.8271 12.3118 3.5564 -0.0000 0.0000 0.0000 129.1869 -11.899 34.2112 15.0841 -24.2631 3.2604 24.8771 -38.0802 15.9513 0.0 0.0 0.0 -7.1250 0.0 0.0 -1.8931 12.4994 -1.4393 -0.0000 0.0000 0.0000 -119.6074 10.2725 -18.2226 -136.0703 -50.2333 -98.5871 -1.9891 -71.6398 42.6961 0.0 0.0 0.0 7.1250 0.0 -0.0 47.4000 66.8202 -27.3701
4.2459 17.6644 1.8076 -1.5807 2.5543 18.3389 0.0000 0.0000 0.0000 -26.3844 -5.8661 -15.2566 0.4586 4.3439 12.0462 0.5050 3.3683 -15.0782 0.3691 3.9026 10.8028 0.0000 0.0000 0.0000 -2.3114 10.0282 -0.6862 -0.6238 -5.0543 14.0634 0.0620 -21.2363 14.4687 -0.9358 6.1619 -17.2549 12.2790 1.2460 -8.9390 1.5582 1.3827 -12.6981 -5.1268 -0.3113 -8.5534 11.0658 18.5995 -2.2147 4.4951 23.9708 7.4750 0.8345 12.3153 3.6098 -0.0000 0.0000 0.0000 129.1001 -11.5915 33.6174 15.1900 -24.4101 3.3041 25.1554 -38.5895 15.3817 0.0 0.0 0.0 -7.1250 0.0 0.0 -1.6613 13.0796 -1.2428 -0.0000 0.0000 0.0000 -119.5472 10.2771 -18.3277 -135.9969 -50.2707 -98.5307 -1.3544 -72.3282 42.9804 0.0 0.0 0.0 7.1250 0.0 -0.0 48.4892 66.8151 -28.1146
4.2481 17.6640 1.8112 -1.5599 2.6008 18.3382 0.0000 0.0000 0.0000 -26.4141 -5.8681 -15.1081 0.4426 4.2689 11.8344 0.4978 3.3453 -14.9721 0.3792 3.9551 10.9502 0.0000 0.0000 0.0000 -2.3277 9.9646 -0.7370 -0.6374 -5.1080 14.2167 0.0641 -21.1898 14.4176 -0.9415 6.1803 -17.3084 12.3005 1.2307 -8.9284 1.5451 1.3666 -12.7412 -5.1530 -0.3271 -8.6136 11.0584 18.6011 -2.1697 4.5865 23.9707 7.5483 0.8611 12.3210 3.6137 0.0000 0.0000 0.0000 129.0342 -11.4898 33.6626 15.2073 -24.4342 3.3112 25.152 -38.7881 15.0963 0.0 0.0 0.0 -7.1250 0.0 0.0 -1.6412 13.3904 -1.217 0.0000 0.0000 0.0000 -119.4768 10.3154 -18.3978 -135.9553 -50.2918 -98.4987 -0.3799 -73.1379 43.0902 0.0 0.0 0.0 7.1250 0.0 -0.0 49.5775 66.5902 -28.6331
4.2456 17.6579 1.8132 -1.5167 2.7231 18.3158 0.0000 0.0000 0.0000 -26.5057 -5.6250 -15.0801 0.4329 4.2222 11.7027 0.4768 3.3088 -14.6756 0.2665 3.3211 9.1740 0.0000 0.0000 0.0000 -2.3161 9.9182 -0.6990 -0.6477 -5.1482 14.3316 0.0745 -21.2414 14.3727 -0.9233 6.1216 -17.1376 12.2830 1.1782 -8.8723 1.5260 1.3092 -12.7842 -5.1657 -0.3621 -8.7061 11.0090 18.6293 -2.1110 4.7203 24.0111 7.5033 0.8951 12.3424 3.5614 0.0000 -0.0000 0.0000 128.9851 -11.5521 34.3075 15.1389 -24.3392 3.283 24.4538 -38.512 15.3539 0.0 0.0 0.0 -7.1250 0.0 0.0 -2.1305 13.203 -1.5887 0.0000 -0.0000 0.0000 -119.4286 10.6309 -18.3446 -136.1338 -50.2008 -98.6359 0.4574 -73.834 42.7388 0.0 0.0 0.0 7.1250 0.0 -0.0 49.7300 66.1103 -28.2241
4.2415 17.6515 1.8119 -1.4973 2.7605 18.3017 0.0000 0.0000 0.0000 -26.5602 -5.4693 -15.1173 0.4313 4.2144 11.6806 0.4566 3.4207 -14.4788 0.1701 2.6566 7.3241 0.0000 0.0000 0.0000 -2.3084 9.9298 -0.6945 -0.6522 -5.1656 14.3816 0.0803 -21.2912 14.3635 -0.9145 6.0933 -17.0555 12.2721 1.1397 -8.7263 1.5162 1.2837 -12.8223 -5.1721 -0.3835 -8.8388 11.0107 18.6538 -2.0494 4.7263 24.0567 7.3566 0.8808 12.3591 3.4977 0.0000 -0.0000 0.0000 128.9261 -11.5615 34.7343 15.0996 -24.2847 3.2668 23.5573 -38.3971 15.7411 0.0 0.0 0.0 -7.1250 0.0 0.0 -2.7604 12.9025 -2.0768 0.0000 -0.0000 0.0000 -119.4018 10.8928 -18.2849 -136.2410 -50.1458 -98.7183 0.6876 -74.0419 42.3212 0.0 0.0 0.0 7.1250 0.0 -0.0 49.2329 65.7695 -27.5169
4.2413 17.6554 1.8125 -1.4655 2.7703 18.3044 0.0000 0.0000 0.0000 -26.5252 -5.7117 -15.0149 0.4296 4.2062 11.6576 0.4707 3.3674 -14.6315 0.2681 3.3307 9.2008 0.0000 0.0000 0.0000 -2.3341 9.8807 -0.7436 -0.6574 -5.1858 14.4392 0.0710 -21.2561 14.4115 -0.9167 6.1004 -17.0759 12.2471 1.1292 -8.6494 1.5117 1.2813 -12.8130 -5.1643 -0.3841 -8.8714 10.9503 18.6587 -2.0706 4.7049 24.0697 7.2276 0.8735 12.3583 3.4502 0.0000 0.0000 0.0000 128.8664 -11.5538 35.2207 15.0692 -24.2425 3.2543 22.9232 -38.3618 15.8863 0.0 0.0 0.0 -7.1250 0.0 0.0 -3.1951 12.8284 -2.4098 0.0000 0.0000 0.0000 -119.397 11.0694 -18.3178 -136.2593 -50.1364 -98.7323 0.1991 -73.5982 42.2946 0.0 0.0 0.0 7.1250 0.0 -0.0 48.7398 65.8965 -27.3183
4.2414 17.6603 1.8165 -1.4349 2.7617 18.2694 0.0000 0.0000 0.0000 -26.4976 -5.9132 -14.9249 0.4370 4.2420 11.7585 0.4951 3.2457 -14.8756 0.4003 4.0619 11.2508 0.0000 0.0000 0.0000 -2.3563 9.8406 -0.6992 -0.6547 -5.1755 14.4097 0.0614 -21.2533 14.4858 -0.9302 6.1440 -17.2027 12.2026 1.1407 -8.6272 1.5006 1.2980 -12.7798 -5.1522 -0.3693 -8.8401 10.9464 18.5923 -2.1997 4.6275 23.9686 7.2373 0.8611 12.3066 3.4853 -0.0000 -0.0000 0.0000 128.8518 -11.6525 36.1471 14.9794 -24.1174 3.2175 23.0469 -38.1075 15.6014 0.0 0.0 0.0 -7.1250 0.0 0.0 -3.0933 13.1175 -2.314 -0.0000 -0.0000 0.0000 -119.3964 11.3976 -18.3095 -136.4294 -50.0487 -98.8628 -0.846 -72.8579 42.5233 0.0 0.0 0.0 7.1250 0.0 -0.0 48.1628 66.3597 -27.4148
4.2418 17.6615 1.8206 -1.5055 2.7527 18.2516 0.0000 0.0000 0.0000 -26.4115 -5.9553 -14.9998 0.4547 4.3257 11.9948 0.5081 3.2508 -15.0457 0.4224 4.1713 11.5591 0.0000 0.0000 0.0000 -2.2820 9.8678 -0.5994 -0.6418 -5.1252 14.2659 0.0577 -21.3532 14.5888 -0.9355 6.1610 -17.2522 12.2954 1.1518 -8.5566 1.5076 1.3239 -12.8063 -5.1959 -0.3695 -8.9105 11.1352 18.4576 -2.2543 4.3687 23.7869 7.2877 0.7691 12.2149 3.5721 -0.0000 0.0000 0.0000 128.8485 -11.7845 37.1175 14.8361 -23.9173 3.1592 23.5093 -37.5643 15.3819 0.0 0.0 0.0 -7.1250 0.0 0.0 -2.7677 13.2943 -2.0595 -0.0000 0.0000 0.0000 -119.3711 11.7284 -18.2363 -136.7135 -49.9009 -99.0803 -1.6917 -72.5036 42.7551 0.0 0.0 0.0 7.1250 0.0 -0.0 47.7801 66.769 -27.578
4.2431 17.6640 1.8223 -1.5943 2.8771 18.2843 0.0000 0.0000 0.0000 -26.2853 -6.0273 -15.1143 0.4681 4.3884 12.1721 0.5175 3.2131 -15.1419 0.4284 4.2007 11.6421 0.0000 0.0000 0.0000 -2.1474 9.8217 -0.5233 -0.6298 -5.0780 14.1313 0.0604 -21.5833 14.7368 -0.9371 6.1662 -17.2674 12.4598 1.1256 -8.5167 1.5191 1.2959 -12.8506 -5.2743 -0.4043 -8.9976 11.2014 18.4328 -2.1865 4.2794 23.7684 7.2147 0.7234 12.2014 3.5549 -0.0000 -0.0000 0.0000 128.8261 -11.8108 37.695 14.7380 -23.7798 3.1195 23.375 -37.0256 15.3912 0.0 0.0 0.0 -7.1250 0.0 0.0 -2.8587 13.3015 -2.127 -0.0000 -0.0000 0.0000 -119.3205 11.9264 -18.2219 -136.9035 -49.8012 -99.2256 -1.951 -72.4329 42.9173 0.0 0.0 0.0 7.1250 0.0 -0.0 47.8253 66.9557 -27.8015
4.2438 17.6670 1.8219 -1.6420 3.0240 18.3314 0.0000 0.0000 0.0000 -26.1948 -6.1168 -15.2164 0.4775 4.4317 12.2944 0.5246 3.1444 -15.1904 0.4312 4.2139 11.6793 0.0000 0.0000 0.0000 -2.0505 9.7656 -0.4690 -0.6194 -5.0365 14.0128 0.0762 -21.8362 14.8003 -0.9704 6.2714 -17.5740 12.5749 1.1057 -8.5337 1.5115 1.2635 -12.8461 -5.3464 -0.4307 -8.9934 11.0571 18.5223 -2.0587 4.4138 23.9129 6.9534 0.7495 12.2633 3.4023 0.0000 -0.0000 0.0000 128.8231 -11.7588 38.0596 14.6898 -23.7122 3.1001 23.2127 -36.896 15.5196 0.0 0.0 0.0 -7.1250 0.0 0.0 -2.9765 13.1841 -2.2222 0.0000 -0.0000 0.0000 -119.2632 12.0744 -18.3243 -136.9395 -49.7822 -99.2531 -1.9213 -72.3856 43.0004 0.0 0.0 0.0 7.1250 0.0 -0.0 48.0004 67.0014 -27.9697
4.2437 17.6676 1.8256 -1.7309 3.1012 18.3685 0.0000 0.0000 0.0000 -26.0598 -6.2392 -15.2685 0.4858 4.4695 12.4015 0.5297 3.1705 -15.2710 0.4333 4.2244 11.7088 0.0000 0.0000 0.0000 -1.9301 9.7858 -0.4318 -0.6108 -5.0023 13.9152 0.0955 -21.8911 14.6914 -0.9854 6.3185 -17.7115 12.6914 1.1185 -8.5656 1.5307 1.2723 -12.8279 -5.3891 -0.4327 -8.9569 10.8822 18.5576 -2.1438 4.5197 23.9540 6.8694 0.8010 12.2801 3.3493 0.0000 -0.0000 0.0000 128.7931 -11.6988 38.3889 14.6656 -23.6782 3.0904 23.1928 -36.9841 15.6486 0.0 0.0 0.0 -7.1250 0.0 0.0 -2.9985 13.0485 -2.2472 0.0000 -0.0000 0.0000 -119.2671 12.2325 -18.4602 -136.9275 -49.7885 -99.2439 -1.6777 -72.5405 43.0402 0.0 0.0 0.0 7.1250 0.0 -0.0 48.2969 66.9531 -28.125
4.2429 17.6668 1.8310 -1.8501 3.1767 18.3794 0.0000 0.0000 0.0000 -25.8995 -6.3193 -15.2555 0.4882 4.4804 12.4323 0.5330 3.1950 -15.3262 0.4404 4.2581 11.8040 0.0000 0.0000 0.0000 -1.7732 9.7543 -0.4313 -0.6097 -4.9978 13.9023 0.0835 -21.8605 14.7619 -0.9591 6.2359 -17.4703 12.8095 1.1135 -8.5651 1.5810 1.2660 -12.8289 -5.3993 -0.4439 -8.9652 10.7245 18.5904 -2.4316 4.6675 23.9507 7.0700 0.9046 12.2883 3.4306 -0.0000 0.0000 0.0000 128.714 -11.5738 38.3941 14.6957 -23.7205 3.1025 22.9757 -37.2043 15.6669 0.0 0.0 0.0 -7.1250 0.0 0.0 -3.1453 13.0565 -2.3571 -0.0000 0.0000 0.0000 -119.2918 12.379 -18.5413 -136.9646 -49.7689 -99.2723 -1.849 -72.4005 42.9555 0.0 0.0 0.0 7.1250 0.0 -0.0 47.9875 66.9496 -27.9073
